<?xml version="1.0" encoding="UTF-8"?>
<svg width="40px" height="40px" viewBox="0 0 40 40" version="1.1" xmlns="http://www.w3.org/2000/svg" xmlns:xlink="http://www.w3.org/1999/xlink">
    <!-- Generator: Sketch 52.4 (67378) - http://www.bohemiancoding.com/sketch -->
    <title>Group 3</title>
    <desc>Created with Sketch.</desc>
    <g id="My-Account" stroke="none" stroke-width="1" fill="none" fill-rule="evenodd">
        <g id="Home-non-login" transform="translate(-1270.000000, -20.000000)">
            <g id="Group-3" transform="translate(1270.000000, 20.000000)">
                <circle id="Oval-4" fill="#D8D8D8" cx="20" cy="20" r="20"></circle>
                <g id="user" opacity="0.5" fill-rule="nonzero">
                    <path d="M14.0940565,31.3893471 L8.13574138,34.633385 C7.78609445,34.8236798 7.47186435,35.0575996 7.17948718,35.3125796 C10.6533499,38.2362001 15.1377225,40 20.0373007,40 C24.9007086,40 29.3564462,38.2625255 32.8205128,35.3787691 C32.5010079,35.1094982 32.1543751,34.8673047 31.7700649,34.6762578 L25.3897621,31.4923921 C24.5653791,31.0809642 24.0446764,30.2400566 24.0446764,29.3201729 L24.0446764,26.8215191 C24.2240212,26.6176855 24.4289866,26.3559361 24.6482695,26.046801 C25.5178655,24.8207909 26.1757142,23.4721797 26.6316115,22.0573791 C27.4499662,21.8054076 28.0528057,21.0509977 28.0528057,20.1544308 L28.0528057,17.4872946 C28.0528057,16.9006149 27.7913241,16.3763639 27.385161,16.009313 L27.385161,12.1537744 C27.385161,12.1537744 28.1786485,6.15384615 20.0380542,6.15384615 C11.89746,6.15384615 12.6909475,12.1537744 12.6909475,12.1537744 L12.6909475,16.009313 C12.2840309,16.3763639 12.0233028,16.9006149 12.0233028,17.4872946 L12.0233028,20.1544308 C12.0233028,20.8569421 12.3932955,21.4752123 12.9471543,21.8324852 C13.6147991,24.7335411 15.3630337,26.8215191 15.3630337,26.8215191 L15.3630337,29.2584963 C15.3622802,30.1460374 14.8754873,30.9636283 14.0940565,31.3893471 Z" id="Shape" fill="#E7ECED"></path>
                    <path d="M20.3426319,0.00293705641 C9.29843279,-0.183133392 0.191666836,8.49519234 0.00298032119,19.3862678 C-0.104193619,25.5615739 2.68685731,31.1116832 7.1308021,34.8025767 C7.42137934,34.552498 7.73308946,34.3232592 8.0795179,34.1371887 L14.047295,30.9271014 C14.8299667,30.5058379 15.3175326,29.6968036 15.3175326,28.8170625 L15.3175326,26.4055895 C15.3175326,26.4055895 13.565767,24.3394632 12.8978167,21.4687683 C12.3438331,21.1152345 11.9724981,20.5041791 11.9724981,19.8082756 L11.9724981,17.1690524 C11.9724981,16.5885126 12.234395,16.0697482 12.6412031,15.7065386 L12.6412031,11.8913502 C12.6412031,11.8913502 11.8464555,5.95421429 19.9999772,5.95421429 C28.1534988,5.95421429 27.3587512,11.8913502 27.3587512,11.8913502 L27.3587512,15.7065386 C27.7663141,16.0697482 28.0274562,16.5885126 28.0274562,17.1690524 L28.0274562,19.8082756 C28.0274562,20.6954595 27.4236594,21.4419742 26.6040052,21.6913086 C26.1473838,23.0913026 25.4884905,24.4257999 24.6175135,25.6389792 C24.3978824,25.944879 24.1925915,26.2038891 24.012962,26.4055895 L24.012962,28.8780936 C24.012962,29.7883502 24.5344915,30.6212015 25.3601837,31.0275794 L31.7506186,34.1781242 C32.1340296,34.3671718 32.480458,34.6060863 32.7997156,34.8717949 C37.1093156,31.327525 39.8935738,26.0282386 39.996974,20.0605872 C40.18717,9.16951164 31.3875857,0.189007505 20.3426319,0.00293705641 Z" id="Shape" fill="#556080"></path>
                </g>
            </g>
        </g>
    </g>
</svg>